<svg width="154" height="79" viewBox="0 0 154 79" fill="none" xmlns="http://www.w3.org/2000/svg">
<g clip-path="url(#clip0_2195_11285)">
<path d="M0.0815439 71.1858H1.0881L1.64632 69.5682H3.96711L4.53413 71.1858H5.66815L3.44406 64.8928H2.31882L0.0771484 71.1858H0.0815439ZM2.78474 66.209H2.81111L3.6946 68.7439H1.92323L2.78914 66.209H2.78474ZM7.88345 71.1858H8.90759V67.5075C9.19769 67.3612 9.54493 67.246 9.87898 67.246C10.4196 67.246 10.5998 67.4454 10.5998 67.9285V71.1858H11.6284V67.7379L11.6108 67.5208C11.9624 67.3479 12.2877 67.246 12.591 67.246C13.1404 67.246 13.3118 67.4454 13.3118 67.9285V71.1858H14.3491V67.6714C14.3491 66.7541 13.87 66.3818 13.0525 66.3818C12.5206 66.3818 11.9932 66.5813 11.5053 66.9092H11.4613C11.246 66.5458 10.8767 66.3818 10.3449 66.3818C9.81305 66.3818 9.30758 66.6078 8.91199 66.8826H8.86803V66.4749H7.88785V71.1858H7.88345ZM17.3864 71.2744C18.1776 71.2744 18.727 71.0395 19.0347 70.8312V70.1133C18.6215 70.3127 18.1952 70.4501 17.593 70.4501C16.7007 70.4501 16.1952 70.1133 16.1337 69.1162H19.1841V68.673C19.1841 67.1751 18.582 66.3863 17.2106 66.3863C16.0238 66.3863 15.0656 67.1751 15.0656 68.7661V68.8946C15.0656 70.3925 15.8392 71.2833 17.382 71.2833M17.1842 67.1618C17.8128 67.1618 18.138 67.5075 18.138 68.4071H16.1293C16.204 67.4233 16.7139 67.1618 17.1842 67.1618ZM19.9401 71.1946H20.9643V67.5163C21.2544 67.3701 21.6016 67.2549 21.9357 67.2549C22.4763 67.2549 22.6565 67.4543 22.6565 67.9373V71.1946H23.6851V67.7468L23.6675 67.5296C24.0191 67.3568 24.3444 67.2549 24.6477 67.2549C25.1971 67.2549 25.3685 67.4543 25.3685 67.9373V71.1946H26.4058V67.6803C26.4058 66.763 25.9267 66.3907 25.1092 66.3907C24.5773 66.3907 24.0455 66.5901 23.562 66.9181H23.518C23.3027 66.5547 22.9334 66.3907 22.4016 66.3907C21.8697 66.3907 21.3687 66.6167 20.9731 66.8915H20.9291V66.4838H19.9489V71.1946H19.9401ZM29.2145 71.301C30.7969 71.301 31.6364 70.4501 31.6364 68.7971V68.6686C31.6364 66.9269 30.7266 66.3907 29.8519 66.3907C29.2321 66.3907 28.8058 66.5547 28.4673 66.7895H28.4234V64.4851H27.3992V71.0306C27.83 71.1946 28.5948 71.301 29.2189 71.301M29.2805 70.5033C28.8761 70.5033 28.608 70.4279 28.4234 70.3659V67.4676C28.6124 67.379 28.9816 67.2327 29.3684 67.2327C30.1859 67.2327 30.5771 67.5961 30.5771 68.7572V68.9389C30.5771 70.1753 29.9749 70.4988 29.2805 70.4988M34.4671 71.2788C35.2583 71.2788 35.8077 71.0439 36.1154 70.8357V70.1177C35.7022 70.3172 35.2802 70.4545 34.6737 70.4545C33.7814 70.4545 33.2759 70.1177 33.2144 69.1206H36.2692V68.6774C36.2692 67.1795 35.667 66.3907 34.2957 66.3907C33.1089 66.3907 32.1507 67.1795 32.1507 68.7705V68.899C32.1507 70.3969 32.9243 71.2877 34.4671 71.2877M34.2693 67.1662C34.9022 67.1662 35.2231 67.5119 35.2231 68.4115H33.2144C33.2891 67.4277 33.799 67.1662 34.2693 67.1662ZM37.0252 71.1991H38.0538V67.6759C38.3614 67.4853 38.7746 67.3568 39.2054 67.3568L39.5746 67.3834V66.4749L39.2889 66.4306C38.7922 66.4306 38.3175 66.6965 38.0538 67.02H38.0098V66.4838H37.0296V71.1946L37.0252 71.1991ZM43.8162 71.2877C45.1216 71.2877 46.0315 70.4146 46.0315 68.8902V68.7528C46.0315 67.2549 45.2227 66.3907 43.825 66.3907C42.5107 66.3907 41.6009 67.2726 41.6009 68.7882V68.9345C41.6009 70.4146 42.4009 71.2833 43.8162 71.2833M43.8338 70.4944C43.1788 70.4944 42.6646 70.1576 42.6646 68.9345V68.7085C42.6646 67.6892 43.0778 67.184 43.8074 67.184C44.4579 67.184 44.9678 67.5208 44.9678 68.7439V68.9788C44.9678 70.0025 44.5414 70.4944 43.8338 70.4944ZM47.0688 71.1946H48.0973V67.2815H49.1215V66.4838H48.0973V65.983C48.0973 65.4202 48.3567 65.1941 48.8534 65.1941C49.1347 65.1941 49.3413 65.2296 49.4643 65.2562V64.556C49.2929 64.4851 49.0028 64.4009 48.5896 64.4009C47.7062 64.4009 47.0688 64.8529 47.0688 65.8811V66.4793H46.4095V67.277H47.0688V71.1902V71.1946Z" fill="white"/>
<path d="M81.5467 61.9457H83.2214V69.7765H86.9883V71.1902H81.5467V61.9457ZM90.3596 71.1902H88.6761V61.9502H90.3596V71.1902ZM92.3683 62.0876C92.8958 61.9812 93.8671 61.8837 94.8166 61.8837C96.0385 61.8837 96.8165 62.0521 97.4318 62.4687C97.9989 62.8188 98.3769 63.4171 98.3769 64.2103C98.3769 65.0612 97.845 65.8279 96.856 66.2002C97.8142 66.4882 98.7109 67.2549 98.7109 68.5179C98.7109 69.3378 98.3505 69.9804 97.8318 70.4368C97.1857 70.9996 96.1088 71.2833 94.421 71.2833C93.4979 71.2833 92.799 71.2212 92.3727 71.1592V62.0876H92.3683ZM94.021 65.7393H94.8825C96.0517 65.7393 96.689 65.1897 96.689 64.4053C96.689 63.5279 96.0341 63.129 94.9792 63.129C94.4913 63.129 94.1968 63.1556 94.021 63.1955V65.7348V65.7393ZM94.021 69.9715C94.2451 70.0114 94.5309 70.0114 94.9089 70.0114C95.9857 70.0114 96.9483 69.617 96.9483 68.478C96.9483 67.3391 96.0165 66.9535 94.8517 66.9535H94.021V69.9671V69.9715ZM105.366 67.0953H101.911V69.8075H105.77V71.1946H100.236V61.9502H105.577V63.3373H101.911V65.7171H105.366V67.0909V67.0953ZM107.497 62.0876C108.135 61.9635 109.062 61.8837 110.029 61.8837C111.339 61.8837 112.227 62.1009 112.86 62.6238C113.361 63.0492 113.647 63.6963 113.647 64.4895C113.647 65.6816 112.842 66.4926 111.972 66.7896C112.64 67.0821 113.036 67.7246 113.251 68.6154C113.546 69.7676 113.796 70.8401 113.976 71.1946H112.262C112.126 70.9243 111.893 70.1665 111.651 69.0187C111.374 67.8088 110.957 67.4233 110.003 67.4011H109.159V71.1991H107.502V62.0964L107.497 62.0876ZM109.154 66.1603H110.148C111.277 66.1603 111.968 65.5576 111.968 64.6358C111.968 63.6342 111.277 63.1556 110.187 63.1556C109.66 63.1556 109.322 63.1999 109.154 63.2398V66.1603ZM117.295 63.355H114.684V61.9502H121.607V63.355H118.965V71.1902H117.295V63.355ZM125.404 71.1902V67.3391L122.508 61.9502H124.424L125.514 64.3256C125.822 65.008 126.051 65.531 126.314 66.1603C126.556 65.5664 126.815 64.9903 127.132 64.3256L128.226 61.9502H130.121L127.075 67.2992V71.1946H125.404V71.1902ZM72.1668 70.7781C69.9208 69.0187 70.1801 65.4379 72.6284 63.9311L72.6723 63.9223L72.7998 64.0508V64.0862C71.5383 67.153 74.3206 67.1219 72.1668 70.7825M60.1101 72.2139H71.0988C70.5493 72.8122 69.8944 73.3174 69.1779 73.7118H62.031C61.3145 73.3174 60.6728 72.8122 60.1057 72.2139M71.1954 71.1991H59.3234C59.0728 70.7958 58.8574 70.4147 58.6684 70.0335C58.2157 69.032 57.9652 67.9108 57.9652 66.732C57.9652 64.4142 58.9322 62.3313 60.4706 60.8866L60.5585 60.8511L60.6815 60.9708L60.6684 61.0151C60.3519 61.5956 59.8684 62.6105 59.8684 63.9932C59.8684 65.1055 60.5761 66.7674 61.4947 67.3568C61.4947 67.3568 60.8925 64.9371 62.0837 63.0271C63.0111 61.538 64.8792 60.2839 64.299 58.0016V57.9705L64.4221 57.8509L64.4836 57.8598C65.0726 58.1522 66.9495 59.8407 66.3077 62.0034C65.9077 63.355 64.5935 64.4275 65.811 66.209C66.1715 63.129 69.2658 63.3949 68.4219 59.6324V59.6103L68.545 59.4906L68.6153 59.5083C69.4549 60.0401 72.3207 61.9989 70.4834 64.8795C68.5714 67.8797 70.1537 70.0335 71.1954 71.1902M65.4946 76.5525C59.9783 76.5525 55.5037 72.0455 55.5037 66.4793C55.5037 60.9132 59.9783 56.4106 65.4946 56.4106C71.0108 56.4106 75.481 60.922 75.481 66.4793C75.481 72.0367 71.0108 76.5525 65.4946 76.5525ZM65.4946 54.9304C59.1651 54.9304 54.04 60.1022 54.04 66.4793C54.04 72.8565 59.1651 78.0327 65.4946 78.0327C71.824 78.0327 76.9535 72.8654 76.9535 66.4793C76.9535 60.0933 71.8196 54.9304 65.4946 54.9304Z" fill="white"/>
<path d="M2.56543 47.7112H4.16097V38.6484H2.56543V47.7112ZM5.84443 47.7112H7.32569V42.4154C7.73886 42.2159 8.34983 42.0342 8.86849 42.0342C9.80472 42.0342 10.0333 42.3223 10.0333 43.0269V47.7068H11.5145V42.6591C11.5145 41.3385 10.8508 40.7889 9.55418 40.7889C8.72344 40.7889 7.8971 41.0903 7.32569 41.5069H7.25976V40.9175H5.84443V47.7068V47.7112ZM14.7892 47.8264C16.4111 47.8264 17.3561 47.1218 17.3561 45.7347C17.3561 44.5337 16.8374 44.0063 15.5144 43.7094L14.8815 43.5632C14.2309 43.408 13.9584 43.2219 13.9584 42.7256C13.9584 42.2026 14.3716 41.9412 15.176 41.9412C15.9276 41.9412 16.6001 42.1362 16.9781 42.2957V41.1834C16.5517 40.9751 15.9671 40.7889 15.0441 40.7889C13.3474 40.7889 12.5519 41.5999 12.5519 42.8541C12.5519 44.1083 13.242 44.5824 14.2793 44.8173L14.9166 44.9636C15.6551 45.132 15.9144 45.3536 15.9144 45.8543C15.9144 46.3773 15.51 46.6786 14.565 46.6786C13.62 46.6786 13.1101 46.4836 12.5519 46.262V47.3744C13.1101 47.6757 13.9013 47.8309 14.7848 47.8309M20.4461 47.8441C21.29 47.8441 21.9361 47.5428 22.5075 47.1262H22.5735L22.7009 47.7156H23.9844V40.9263H22.5075V46.2089C22.0768 46.4171 21.5845 46.6254 20.9911 46.6254C20.134 46.6254 19.8747 46.3241 19.8747 45.5796V40.9219H18.3934V45.8499C18.3934 47.1838 19.1318 47.8397 20.4417 47.8397" fill="white"/>
<path d="M25.4658 47.7113H26.9427V42.6371C27.3822 42.3623 27.98 42.1806 28.6042 42.1806C28.7492 42.1806 28.9646 42.1939 29.136 42.2205V40.9132C29.0701 40.8733 28.8899 40.8467 28.7228 40.8467C28.0108 40.8467 27.3207 41.2234 26.9471 41.6976H26.8812V40.9264H25.4702V47.7113H25.4658Z" fill="white"/>
<path d="M31.5571 47.8398C32.4406 47.8398 32.9856 47.5518 33.2933 47.1574H33.3724L33.5043 47.7069H34.7218V42.8143C34.7218 41.4006 33.8119 40.789 32.2735 40.789C31.39 40.789 30.6648 40.9176 30.0406 41.1702V42.2028C30.4538 42.1097 31.0384 42.0078 31.6845 42.0078C32.8274 42.0078 33.2405 42.2293 33.2405 43.16V43.6962L31.6318 43.8956C30.2956 44.0773 29.4648 44.6668 29.4648 45.9076C29.4648 47.215 30.3351 47.8443 31.5527 47.8443M31.9922 46.7851C31.3725 46.7851 30.9417 46.497 30.9417 45.8323C30.9417 45.1675 31.2802 44.8795 31.9659 44.813L33.2361 44.6801V46.3818C32.99 46.6167 32.4977 46.7851 31.9878 46.7851M36.1459 47.7113H37.6228V42.4155C38.0404 42.216 38.6469 42.0343 39.1656 42.0343C40.0974 42.0343 40.3304 42.3224 40.3304 43.027V47.7069H41.8116V42.6592C41.8116 41.3386 41.1479 40.789 39.8513 40.789C39.0205 40.789 38.1898 41.0904 37.6184 41.507H37.5525V40.9176H36.1415V47.7024L36.1459 47.7113ZM46.0752 47.8443C47.0202 47.8443 47.6444 47.5961 48.0751 47.3213V46.209C47.7367 46.3818 47.1653 46.6433 46.3346 46.6433C45.0379 46.6433 44.4006 45.9741 44.4006 44.4053V44.0906C44.4006 42.7168 45.0994 41.9989 46.2159 41.9989C47.0466 41.9989 47.4466 42.1584 48.0048 42.38V41.2145C47.5609 40.9663 47.0422 40.7979 46.1499 40.7979C44.2687 40.7979 42.8578 41.897 42.8578 44.2635V44.4718C42.8578 46.7231 44.0753 47.8443 46.0752 47.8443ZM52.0266 47.8443C53.1695 47.8443 53.9562 47.503 54.4002 47.2017V46.1691C53.8068 46.4572 53.1958 46.6521 52.3255 46.6521C51.0421 46.6521 50.3168 46.1691 50.2245 44.7288H54.62V44.0862C54.62 41.928 53.7497 40.789 51.7805 40.789C50.0663 40.789 48.6949 41.9236 48.6949 44.2147V44.3964C48.6949 46.5546 49.8113 47.8354 52.0266 47.8354M51.7409 41.897C52.6508 41.897 53.1167 42.3933 53.1167 43.6874H50.2245C50.33 42.2737 51.0684 41.897 51.7409 41.897ZM61.8505 47.862C62.9142 47.862 63.7449 47.6404 64.369 47.2992V46.0583C63.824 46.3065 63.1779 46.5679 62.1406 46.5679C60.2329 46.5679 59.4945 45.3625 59.4945 43.2708V42.8143C59.4945 40.6428 60.5582 39.7831 62.1142 39.7831C62.9581 39.7831 63.5779 39.9382 64.268 40.2041V38.9588C63.7229 38.6707 63.0109 38.489 62.0087 38.489C59.6879 38.489 57.7935 39.7166 57.7935 43.0005V43.3151C57.7935 46.3862 59.3495 47.8664 61.8505 47.8664M68.2502 47.8398C70.1315 47.8398 71.4413 46.5857 71.4413 44.3876V44.1926C71.4413 42.0343 70.2721 40.7935 68.2634 40.7935C66.369 40.7935 65.0591 42.0609 65.0591 44.2457V44.454C65.0591 46.5857 66.2151 47.8398 68.2502 47.8398ZM68.2766 46.7009C67.3316 46.7009 66.5887 46.2178 66.5887 44.454V44.1261C66.5887 42.6636 67.1865 41.928 68.237 41.928C69.1733 41.928 69.9117 42.411 69.9117 44.1793V44.5205C69.9117 45.9963 69.3007 46.7053 68.2766 46.7053M72.527 47.7113H74.0083V42.4155C74.4214 42.2072 74.9269 42.0343 75.4104 42.0343C76.1884 42.0343 76.4477 42.3224 76.4477 43.0137V47.7069H77.9246V42.739L77.8982 42.4243C78.4037 42.1762 78.8696 42.0299 79.3092 42.0299C80.1003 42.0299 80.3465 42.318 80.3465 43.0093V47.7024H81.8409V42.6415C81.8409 41.3208 81.1508 40.7846 79.9729 40.7846C79.2081 40.7846 78.4433 41.0727 77.74 41.5424H77.6741C77.362 41.0195 76.8301 40.7846 76.0653 40.7846C75.3005 40.7846 74.5753 41.1126 74.0039 41.5025H73.9379V40.9131H72.5226V47.698L72.527 47.7113ZM83.2607 50.264H84.7375V47.4676C85.0628 47.6493 85.5815 47.8487 86.3199 47.8487C88.1616 47.8487 89.3659 46.8427 89.3659 44.2901V44.1084C89.3659 41.6266 88.0956 40.8023 86.6803 40.8023C85.8364 40.8023 85.1507 41.0904 84.7331 41.4804H84.6672V40.9309H83.2519V50.2684L83.2607 50.264ZM86.1133 46.7053C85.5199 46.7053 84.9969 46.5236 84.7375 46.3153V42.4199C84.9969 42.2382 85.5155 42.0122 86.1792 42.0122C87.2429 42.0122 87.8407 42.5085 87.8407 44.2059V44.4806C87.8407 46.1558 87.2034 46.7009 86.1133 46.7009M92.179 47.8398C93.0625 47.8398 93.6075 47.5518 93.9152 47.1574H93.9943L94.1218 47.7069H95.3393V42.8143C95.3393 41.4006 94.4339 40.789 92.8867 40.789C92.0032 40.789 91.2779 40.9176 90.6538 41.1702V42.2028C91.067 42.1097 91.6516 42.0078 92.3021 42.0078C93.4449 42.0078 93.8581 42.2293 93.8581 43.16V43.6962L92.2493 43.8956C90.9131 44.0773 90.0824 44.6668 90.0824 45.9076C90.0824 47.215 90.9527 47.8443 92.1702 47.8443M92.6098 46.7851C91.9856 46.7851 91.5592 46.497 91.5592 45.8323C91.5592 45.1675 91.8977 44.8795 92.5834 44.813L93.8537 44.6801V46.3818C93.6075 46.6167 93.1152 46.7851 92.6098 46.7851Z" fill="white"/>
<path d="M96.7856 47.7113H98.2625V42.4155C98.6801 42.2205 99.2867 42.0344 99.8053 42.0344C100.742 42.0344 100.974 42.3224 100.974 43.0271V47.7069H102.456V42.6592C102.456 41.3386 101.792 40.7891 100.495 40.7891C99.6647 40.7891 98.8339 41.0904 98.2625 41.507H98.1966V40.9176H96.7812V47.7025L96.7856 47.7113Z" fill="white"/>
<path d="M104.456 50.3128C105.687 50.3128 106.324 49.7766 106.777 48.4692L109.475 40.9221H108.034L106.438 45.7216H106.399L104.676 40.9221H103.106L105.66 47.5652L105.401 48.2344C105.155 48.8903 104.755 49.1517 104.131 49.1517C103.898 49.1517 103.651 49.1251 103.467 49.0853V50.1045C103.673 50.2242 104.104 50.3128 104.451 50.3128" fill="white"/>
<path d="M2.56055 30.0999H8.92075V17.5671H19.8962V30.0999H26.2608V1.05029H19.8962V12.7455H8.92075V1.05029H2.56055V30.0999Z" fill="white"/>
<path d="M39.9002 30.5209C43.7682 30.5209 46.3879 29.4706 47.8868 28.4646V24.6489C46.0978 25.4865 43.9792 26.1158 41.276 26.1158C37.3245 26.1158 35.162 24.8173 34.7488 20.6649H48.6779V18.6529C48.6779 11.5667 45.8956 7.7111 39.1135 7.7111C33.1269 7.7111 28.8018 11.611 28.8018 18.777V19.362C28.8018 26.4482 32.5027 30.512 39.9046 30.512M39.03 11.8148C41.6101 11.8148 42.9375 13.1975 42.9375 16.9733H34.7444C35.0785 12.905 37.074 11.8148 39.0256 11.8148M51.7504 30.091H57.6139V14.3276C58.9457 13.5742 60.7742 13.069 62.7302 13.069C63.2313 13.069 64.018 13.1532 64.5191 13.2374V8.03904C64.2686 7.91053 63.7719 7.87064 63.1917 7.87064C60.9017 7.87064 58.7831 9.04503 57.6183 10.6759H57.4117V8.07893H51.7548V30.0866L51.7504 30.091ZM67.3014 30.091H73.165V8.09222H67.3014V30.0999V30.091ZM67.2619 4.89699H73.2089V0H67.2619V4.90586V4.89699ZM85.3096 30.3879C87.4721 30.3879 88.8435 29.927 89.7182 29.4662V25.6505C89.0105 25.8189 88.0963 25.9474 87.349 25.9474C85.3096 25.9474 84.6063 25.3624 84.6063 23.5986V12.4042H89.472V8.08779H84.6063V2.89388H78.7867V8.09222H75.9165V12.4087H78.7867V24.4406C78.7867 28.9255 81.2833 30.3924 85.314 30.3924" fill="white"/>
<path d="M98.3242 30.5207C101.111 30.5207 102.983 29.6388 103.937 28.3403H104.183L104.64 30.0997H109.462V14.3363C109.462 9.59883 106.341 7.71094 101.186 7.71094C98.0692 7.71094 95.5331 8.13195 93.3705 8.92521V12.9093C94.8254 12.5725 96.7814 12.28 98.9439 12.28C102.394 12.28 103.643 12.865 103.643 15.5949V16.9776L98.9439 17.6068C94.4518 18.1918 91.542 19.9556 91.542 24.2721C91.542 28.5885 94.3683 30.5207 98.3154 30.5207M100.232 26.581C98.4868 26.581 97.2385 25.7833 97.2385 23.7713C97.2385 21.7593 98.1923 21.0458 100.192 20.8375L103.643 20.5052V25.4908C102.979 26.1201 101.608 26.581 100.232 26.581ZM121.69 38.4889C129.505 38.4889 133 35.1784 133 30.6891C133 26.1999 130.217 24.6532 125.809 24.6532H119.695C118.407 24.6532 117.906 24.1524 117.906 23.1464C117.906 22.6412 118.156 22.1404 118.486 21.7638C119.523 22.0164 120.605 22.1404 121.853 22.1404C127.092 22.1404 130.754 19.836 130.754 15.0985V14.7617C130.754 13.5031 130.42 12.5415 129.756 11.7438H132.916V8.09649H125.514C124.433 7.84389 123.185 7.7198 121.897 7.7198C116.451 7.7198 112.873 10.237 112.873 14.9301V15.2669C112.873 17.824 113.91 19.6277 115.699 20.7179C114.038 21.9765 113.08 23.4434 113.08 25.1628C113.08 26.7582 114.038 27.8484 115.365 28.3935V28.6018C113.08 29.3596 111.291 30.7822 111.291 33.0867C111.291 36.3572 114.535 38.4933 121.686 38.4933M121.602 34.5934C118.068 34.5934 116.86 33.7115 116.86 32.1206C116.86 30.8221 117.651 30.0244 118.772 29.6477H124.011C126.464 29.6477 127.127 30.1086 127.127 31.6995C127.127 33.419 125.796 34.5934 121.598 34.5934M121.849 18.5375C119.686 18.5375 118.438 17.5714 118.438 15.1827V14.682C118.438 12.4174 119.642 11.3272 121.849 11.3272C123.928 11.3272 125.215 12.2091 125.215 14.7218V15.227C125.215 17.5758 124.011 18.5375 121.849 18.5375Z" fill="white"/>
<path d="M145.144 30.5207C149.012 30.5207 151.632 29.4704 153.131 28.4688V24.6532C151.342 25.4907 149.223 26.12 146.52 26.12C142.569 26.12 140.406 24.8216 139.993 20.6691H153.922V18.6571C153.922 11.5709 151.135 7.71533 144.358 7.71533C138.371 7.71533 134.046 11.6152 134.046 18.7812V19.3662C134.046 26.4524 137.747 30.5207 145.144 30.5207ZM144.27 11.8235C146.845 11.8235 148.177 13.2062 148.177 16.9819H139.984C140.318 12.9137 142.314 11.8235 144.265 11.8235" fill="white"/>
</g>
<defs>
<clipPath id="clip0_2195_11285">
<rect width="153.836" height="78.0328" fill="white" transform="translate(0.0820312)"/>
</clipPath>
</defs>
</svg>
